<?xml version="1.0" standalone="no"?>
<svg xmlns="http://www.w3.org/2000/svg" width="191.27600931108435" height="65.07600931108436" viewBox="0 0 191.27600931108435 65.07600931108436"><g fill="#f59000" color="#f59000" transform="translate(0 0) scale(1.3015202)"><svg width="50.0" height="50.0" x="0.0" y="0.0" viewBox="0 0 50 50"><g><g><path fill="currentColor" d="M22,2v26h27V2H22z M30.287,24.425c-1.297,0-2.35-1.053-2.35-2.35s1.053-2.35,2.35-2.35    s2.35,1.053,2.35,2.35S31.584,24.425,30.287,24.425z M30.287,17.174c-1.297,0-2.35-1.051-2.35-2.349    c0-1.297,1.053-2.351,2.35-2.351s2.35,1.054,2.35,2.351C32.637,16.123,31.584,17.174,30.287,17.174z M30.287,9.924    c-1.297,0-2.35-1.052-2.35-2.35c0-1.297,1.053-2.349,2.35-2.349s2.35,1.052,2.35,2.349C32.637,8.872,31.584,9.924,30.287,9.924z     M40.818,24.425c-1.297,0-2.35-1.053-2.35-2.35s1.053-2.35,2.35-2.35s2.35,1.053,2.35,2.35S42.115,24.425,40.818,24.425z     M40.818,17.174c-1.297,0-2.35-1.051-2.35-2.349c0-1.297,1.053-2.351,2.35-2.351s2.35,1.054,2.35,2.351    C43.168,16.123,42.115,17.174,40.818,17.174z M40.818,9.924c-1.297,0-2.35-1.052-2.35-2.35c0-1.297,1.053-2.349,2.35-2.349    s2.35,1.052,2.35,2.349C43.168,8.872,42.115,9.924,40.818,9.924z"></path></g><g><path fill="currentColor" d="M19,31v-9H1v27h27V31H19z M5.813,26.42c0.917-0.917,2.404-0.917,3.323,0    c0.916,0.917,0.916,2.404-0.001,3.322c-0.918,0.918-2.405,0.917-3.322,0C4.896,28.826,4.895,27.337,5.813,26.42z M9.289,43.344    c-0.917,0.918-2.404,0.918-3.322,0c-0.918-0.917-0.917-2.404-0.001-3.321c0.919-0.918,2.405-0.919,3.323-0.001    S10.207,42.428,9.289,43.344z M15.9,36.61c-0.917,0.918-2.406,0.918-3.324,0c-0.918-0.917-0.916-2.403,0.002-3.321    c0.917-0.917,2.404-0.919,3.321-0.001C16.816,34.205,16.816,35.693,15.9,36.61z M22.662,43.27    c-0.917,0.919-2.404,0.918-3.321,0.001c-0.917-0.918-0.918-2.405,0-3.322c0.917-0.918,2.405-0.918,3.321,0    C23.58,40.864,23.58,42.353,22.662,43.27z"></path></g></g></svg></g><path fill="#000000" fill-rule="nonzero" d="M4.68 28.28L0.16 28.28Q0 28.28 0 28.08L0 28.08L0.08 0.60Q0.08 0.44 0.24 0.44L0.24 0.44L8.32 0.44Q10.48 0.44 12.30 1.50Q14.12 2.56 15.20 4.34Q16.28 6.12 16.28 8.36L16.28 8.36Q16.28 9.84 15.84 11.02Q15.40 12.20 14.80 13.02Q14.20 13.84 13.72 14.24L13.72 14.24Q15.88 16.64 15.88 19.88L15.88 19.88L15.92 28.08Q15.92 28.28 15.72 28.28L15.72 28.28L11.20 28.28Q11.04 28.28 11.04 28.16L11.04 28.16L11.04 19.88Q11.04 18.44 10.02 17.38Q9 16.32 7.52 16.32L7.52 16.32L4.88 16.32L4.84 28.08Q4.84 28.28 4.68 28.28L4.68 28.28ZM4.88 5.24L4.88 11.52L8.32 11.52Q9.56 11.52 10.52 10.60Q11.48 9.68 11.48 8.36L11.48 8.36Q11.48 7.08 10.54 6.16Q9.60 5.24 8.32 5.24L8.32 5.24L4.88 5.24ZM17.92 28.08L17.92 28.08L22.88 0.60Q22.92 0.44 23.08 0.44L23.08 0.44L28.88 0.44Q29.04 0.44 29.08 0.60L29.08 0.60L33.84 28.08Q33.88 28.28 33.68 28.28L33.68 28.28L29.24 28.28Q29.08 28.28 29.04 28.08L29.04 28.08L28.60 25.16L23.16 25.16L22.72 28.08Q22.68 28.28 22.52 28.28L22.52 28.28L18.08 28.28Q17.92 28.28 17.92 28.08ZM25.76 9.64L23.96 20.88L27.80 20.88L26.16 9.64L25.92 8.16L25.76 9.64ZM40.72 28.28L36.72 28.28Q36.40 28.28 36.40 28L36.40 28L36.36 0.76Q36.36 0.44 36.68 0.44L36.68 0.44L40.28 0.44L47.04 16.20L46.84 0.76Q46.84 0.44 47.20 0.44L47.20 0.44L51.16 0.44Q51.40 0.44 51.40 0.76L51.40 0.76L51.44 28.04Q51.44 28.28 51.24 28.28L51.24 28.28L47.72 28.28L40.80 13.56L41.08 27.96Q41.08 28.28 40.72 28.28L40.72 28.28ZM62.28 28.24L55.12 28.28Q54.92 28.28 54.92 28.08L54.92 28.08L55.00 0.60Q55.00 0.44 55.16 0.44L55.16 0.44L62.64 0.40Q64.84 0.36 66.66 1.44Q68.48 2.52 69.56 4.34Q70.64 6.16 70.64 8.36L70.64 8.36L70.64 19.84Q70.64 22.16 69.52 24.06Q68.40 25.96 66.52 27.08Q64.64 28.20 62.28 28.24L62.28 28.24ZM59.84 5.24L59.80 23.36L62.28 23.36Q63.76 23.36 64.78 22.32Q65.80 21.28 65.80 19.84L65.80 19.84L65.80 8.32Q65.80 7.04 64.86 6.10Q63.92 5.16 62.64 5.20L62.64 5.20L59.84 5.24ZM80.24 28.68L80.24 28.68Q78.08 28.68 76.30 27.58Q74.52 26.48 73.44 24.66Q72.36 22.84 72.36 20.64L72.36 20.64L72.40 7.96Q72.40 5.76 73.46 3.96Q74.52 2.16 76.32 1.08Q78.12 0 80.24 0L80.24 0Q82.40 0 84.16 1.08Q85.92 2.16 86.98 3.96Q88.04 5.76 88.04 7.96L88.04 7.96L88.08 20.64Q88.08 22.84 87.02 24.66Q85.96 26.48 84.18 27.58Q82.40 28.68 80.24 28.68ZM80.24 23.84L80.24 23.84Q81.44 23.84 82.34 22.86Q83.24 21.88 83.24 20.64L83.24 20.64L83.20 7.96Q83.20 6.64 82.36 5.72Q81.52 4.80 80.24 4.80L80.24 4.80Q79.00 4.80 78.12 5.70Q77.24 6.60 77.24 7.96L77.24 7.96L77.24 20.64Q77.24 21.96 78.12 22.90Q79.00 23.84 80.24 23.84ZM95.80 28.28L91.28 28.28Q91.12 28.28 91.12 28.08L91.12 28.08L91.20 0.60Q91.20 0.44 91.36 0.44L91.36 0.44L96.24 0.44Q96.40 0.44 96.52 0.60L96.52 0.60L100.16 5.88L103.80 0.60Q103.92 0.44 104.08 0.44L104.08 0.44L109.00 0.44Q109.16 0.44 109.16 0.60L109.16 0.60L109.24 28.08Q109.24 28.28 109.08 28.28L109.08 28.28L104.56 28.28Q104.40 28.28 104.40 28.08L104.40 28.08L104.36 7.68L100.16 13.76L96.00 7.68L95.96 28.08Q95.96 28.28 95.80 28.28L95.80 28.28Z" transform="translate(80.077 0) scale(1.018)"></path><path fill="#000000" fill-rule="nonzero" d="M7.36 27.88L0.20 27.92Q0 27.92 0 27.72L0 27.72L0.08 0.24Q0.08 0.08 0.24 0.08L0.24 0.08L7.72 0.04Q9.92 0 11.74 1.08Q13.56 2.16 14.64 3.98Q15.72 5.80 15.72 8L15.72 8L15.72 19.48Q15.72 21.80 14.60 23.70Q13.48 25.60 11.60 26.72Q9.72 27.84 7.36 27.88L7.36 27.88ZM4.92 4.88L4.88 23L7.36 23Q8.84 23 9.86 21.96Q10.88 20.92 10.88 19.48L10.88 19.48L10.88 7.96Q10.88 6.68 9.94 5.74Q9 4.80 7.72 4.84L7.72 4.84L4.92 4.88ZM23.56 27.92L19.04 27.92Q18.88 27.92 18.88 27.72L18.88 27.72L18.96 0.24Q18.96 0.08 19.12 0.08L19.12 0.08L27.20 0.08Q29.36 0.08 31.18 1.14Q33 2.20 34.08 3.98Q35.16 5.76 35.16 8L35.16 8Q35.16 9.48 34.72 10.66Q34.28 11.84 33.68 12.66Q33.08 13.48 32.60 13.88L32.60 13.88Q34.76 16.28 34.76 19.52L34.76 19.52L34.80 27.72Q34.80 27.92 34.60 27.92L34.60 27.92L30.08 27.92Q29.92 27.92 29.92 27.80L29.92 27.80L29.92 19.52Q29.92 18.08 28.90 17.02Q27.88 15.96 26.40 15.96L26.40 15.96L23.76 15.96L23.72 27.72Q23.72 27.92 23.56 27.92L23.56 27.92ZM23.76 4.88L23.76 11.16L27.20 11.16Q28.44 11.16 29.40 10.24Q30.36 9.32 30.36 8L30.36 8Q30.36 6.72 29.42 5.80Q28.48 4.88 27.20 4.88L27.20 4.88L23.76 4.88ZM36.80 27.72L36.80 27.72L41.76 0.24Q41.80 0.08 41.96 0.08L41.96 0.08L47.76 0.08Q47.92 0.08 47.96 0.24L47.96 0.24L52.72 27.72Q52.76 27.92 52.56 27.92L52.56 27.92L48.12 27.92Q47.96 27.92 47.92 27.72L47.92 27.72L47.48 24.80L42.04 24.80L41.60 27.72Q41.56 27.92 41.40 27.92L41.40 27.92L36.96 27.92Q36.80 27.92 36.80 27.72ZM44.64 9.28L42.84 20.52L46.68 20.52L45.04 9.28L44.80 7.80L44.64 9.28ZM61.48 27.92L56.64 27.92Q56.48 27.92 56.44 27.72L56.44 27.72L51.72 0.24Q51.68 0.08 51.84 0.08L51.84 0.08L56.32 0.08Q56.48 0.08 56.52 0.24L56.52 0.24L59.08 18.32L61.72 0.24Q61.76 0.08 61.96 0.08L61.96 0.08L65.56 0.08Q65.72 0.08 65.76 0.24L65.76 0.24L68.36 18.32L70.96 0.24Q71 0.08 71.16 0.08L71.16 0.08L75.60 0.08Q75.80 0.08 75.76 0.24L75.76 0.24L71 27.72Q70.96 27.80 70.88 27.86Q70.80 27.92 70.80 27.92L70.80 27.92L65.96 27.92Q65.84 27.92 65.76 27.72L65.76 27.72L63.72 13.36L61.68 27.72Q61.64 27.92 61.48 27.92L61.48 27.92ZM91.20 27.92L78.28 27.92Q78.12 27.92 78.12 27.72L78.12 27.72L78.16 0.24Q78.16 0.08 78.32 0.08L78.32 0.08L91.16 0.08Q91.32 0.08 91.32 0.28L91.32 0.28L91.32 4.76Q91.32 4.92 91.16 4.92L91.16 4.92L82.96 4.92L82.96 11.16L91.16 11.16Q91.32 11.16 91.32 11.32L91.32 11.32L91.36 15.84Q91.36 16 91.20 16L91.20 16L82.96 16L82.96 23L91.20 23Q91.36 23 91.36 23.20L91.36 23.20L91.36 27.76Q91.36 27.92 91.20 27.92L91.20 27.92ZM99.60 27.92L95.08 27.92Q94.92 27.92 94.92 27.72L94.92 27.72L95 0.24Q95 0.08 95.16 0.08L95.16 0.08L103.24 0.08Q105.40 0.08 107.22 1.14Q109.04 2.20 110.12 3.98Q111.20 5.76 111.20 8L111.20 8Q111.20 9.48 110.76 10.66Q110.32 11.84 109.72 12.66Q109.12 13.48 108.64 13.88L108.64 13.88Q110.80 16.28 110.80 19.52L110.80 19.52L110.84 27.72Q110.84 27.92 110.64 27.92L110.64 27.92L106.12 27.92Q105.96 27.92 105.96 27.80L105.96 27.80L105.96 19.52Q105.96 18.08 104.94 17.02Q103.92 15.96 102.44 15.96L102.44 15.96L99.80 15.96L99.76 27.72Q99.76 27.92 99.60 27.92L99.60 27.92ZM99.80 4.88L99.80 11.16L103.24 11.16Q104.48 11.16 105.44 10.24Q106.40 9.32 106.40 8L106.40 8Q106.40 6.72 105.46 5.80Q104.52 4.88 103.24 4.88L103.24 4.88L99.80 4.88Z" transform="translate(80.077 37.195) scale(1)"></path></svg>